<?xml version="1.0" standalone="no"?>
<!DOCTYPE svg PUBLIC "-//W3C//DTD SVG 20010904//EN"
 "http://www.w3.org/TR/2001/REC-SVG-20010904/DTD/svg10.dtd">
<svg version="1.0" xmlns="http://www.w3.org/2000/svg"
 width="200.000000pt" height="200.000000pt" viewBox="0 0 200.000000 200.000000"
 preserveAspectRatio="xMidYMid meet">

<g transform="translate(0.000000,200.000000) scale(0.100000,-0.100000)"
fill="#575454" stroke="none">
<path d="M351 1211 c-16 -16 -21 -34 -21 -76 l0 -55 -60 0 c-74 0 -80 -9 -80
-120 0 -93 10 -120 45 -120 21 0 25 -5 25 -29 0 -43 13 -45 50 -6 30 31 40 35
85 35 62 0 75 11 75 66 0 24 4 45 8 48 5 3 24 -10 42 -29 19 -19 38 -35 42
-35 4 0 8 16 8 35 0 31 3 35 25 35 44 0 57 37 53 144 -2 60 -8 100 -16 108 -9
9 -52 14 -137 16 -114 3 -125 2 -144 -17z m263 -17 c12 -11 16 -36 16 -99 0
-106 -4 -115 -46 -115 -30 0 -34 -3 -34 -26 l0 -26 -31 26 c-26 22 -40 26 -94
26 -75 0 -75 -1 -75 120 0 74 3 91 18 99 9 6 65 11 124 11 84 0 110 -3 122
-16z m-284 -168 c0 -47 22 -66 76 -66 l45 0 -3 -47 -3 -48 -55 -3 c-43 -2 -61
-9 -82 -29 l-28 -27 0 26 c0 23 -5 27 -32 30 l-33 3 -3 84 c-2 46 -1 90 2 98
4 9 24 13 61 13 l55 0 0 -34z"/>
<path fill="#1873DB" d="M430 1125 c-15 -18 2 -58 34 -78 24 -16 28 -16 52 0 32 20 49 60 34
78 -6 7 -32 13 -60 13 -28 0 -54 -6 -60 -13z"/>
<path d="M1183 1140 c-21 -8 -23 -16 -23 -74 0 -71 11 -86 65 -86 54 0 65 15
65 86 0 60 -2 65 -26 74 -30 12 -51 12 -81 0z m62 -75 c0 -33 -3 -40 -20 -40
-15 0 -21 8 -23 28 -5 39 5 59 25 55 14 -2 18 -13 18 -43z"/>
<path  d="M700 1065 c0 -73 1 -75 25 -75 20 0 25 5 25 25 0 18 5 25 20 25 15 0
20 -7 20 -25 0 -20 5 -25 25 -25 22 0 25 4 25 40 0 25 -6 42 -16 48 -13 7 -14
13 -5 30 15 29 14 32 -13 32 -18 0 -27 -8 -37 -32 l-13 -33 -3 33 c-4 26 -9
32 -29 32 -23 0 -24 -2 -24 -75z"/>
<path d="M870 1120 c0 -11 7 -20 15 -20 11 0 15 -11 15 -35 0 -22 -6 -38 -15
-41 -8 -4 -15 -12 -15 -20 0 -10 14 -14 50 -14 36 0 50 4 50 14 0 8 -7 16 -15
20 -9 3 -15 19 -15 41 0 24 4 35 15 35 8 0 15 9 15 20 0 17 -7 20 -50 20 -43
0 -50 -3 -50 -20z"/>
<path  d="M1078 1083 c-2 -44 -7 -58 -18 -58 -8 0 -16 10 -18 23 -2 14 -10 22
-23 22 -15 0 -19 -7 -19 -35 0 -38 20 -55 64 -55 45 0 66 32 66 100 0 57 -1
60 -25 60 -22 0 -24 -4 -27 -57z"/>
<path  d="M1320 1065 c0 -73 1 -75 25 -75 20 0 25 5 25 25 0 18 5 25 20 25 15
0 20 -7 20 -25 0 -20 5 -25 25 -25 22 0 25 4 25 39 0 22 -5 43 -11 46 -6 4 -7
19 -4 36 6 25 4 29 -14 29 -13 0 -26 -10 -33 -25 -6 -14 -15 -25 -20 -25 -4 0
-8 11 -8 25 0 20 -5 25 -25 25 -24 0 -25 -2 -25 -75z"/>
<path d="M1490 1120 c0 -11 7 -20 15 -20 11 0 15 -11 15 -35 0 -22 -6 -38 -15
-41 -8 -4 -15 -12 -15 -20 0 -10 15 -14 55 -14 42 0 55 3 55 15 0 8 -7 15 -15
15 -11 0 -15 11 -15 39 0 25 5 41 15 45 8 3 15 12 15 21 0 12 -12 15 -55 15
-48 0 -55 -2 -55 -20z"/>
</g>
</svg>
